<svg width="25" height="25" viewBox="0 0 25 25" fill="none" xmlns="http://www.w3.org/2000/svg">
<path d="M16.0098 13.9197C14.8888 13.9256 14.353 14.5535 12.5132 14.5632C10.6734 14.5729 10.1349 13.9508 9.00994 13.9567C6.11154 13.972 3.77244 16.336 3.78776 19.2344L3.79304 20.2344C3.79851 21.2695 4.64278 22.1049 5.67792 22.0994L19.4277 22.0268C20.4629 22.0213 21.2983 21.177 21.2928 20.1419L21.2875 19.1419C21.2722 16.2435 18.9082 13.9044 16.0098 13.9197ZM19.4178 20.1518L5.66801 20.2245L5.66273 19.2245C5.65291 17.3651 7.1605 15.8415 9.01985 15.8317C9.59015 15.8287 10.5192 16.4488 12.5231 16.4382C14.5426 16.4275 15.4455 15.7977 16.0198 15.7947C17.8791 15.7849 19.4027 17.2925 19.4125 19.1518L19.4178 20.1518ZM12.5066 13.3132C15.612 13.2968 18.1182 10.764 18.1018 7.65858C18.0854 4.55316 15.5526 2.04697 12.4471 2.06338C9.34172 2.07979 6.83554 4.6126 6.85195 7.71803C6.86836 10.8235 9.40116 13.3296 12.5066 13.3132ZM12.4571 3.93836C14.5234 3.92744 16.2159 5.60211 16.2268 7.66849C16.2377 9.73487 14.5631 11.4273 12.4967 11.4383C10.4303 11.4492 8.73784 9.7745 8.72692 7.70812C8.716 5.64174 10.3907 3.94928 12.4571 3.93836Z" fill="#0B0B0B" stroke="#0B0B0B" stroke-width="0.0390625"/>
</svg>
