<svg width="24" height="24" viewBox="0 0 24 24" fill="none" xmlns="http://www.w3.org/2000/svg">
<mask id="mask0_2553_198" style="mask-type:alpha" maskUnits="userSpaceOnUse" x="0" y="0" width="24" height="24">
<rect width="24" height="24" fill="#D9D9D9"/>
</mask>
<g mask="url(#mask0_2553_198)">
<path d="M20.1395 20.8875L15.4395 16.1875C14.7561 16.7208 14.002 17.1375 13.177 17.4375C12.352 17.7375 11.4728 17.8875 10.5395 17.8875C9.03945 17.8875 7.68529 17.5208 6.47695 16.7875C5.26862 16.0541 4.31445 15.0875 3.61445 13.8875H6.06445C6.63112 14.5041 7.29362 14.9916 8.05195 15.35C8.81029 15.7083 9.63945 15.8875 10.5395 15.8875C12.2061 15.8875 13.6228 15.3041 14.7895 14.1375C15.9561 12.9708 16.5395 11.5541 16.5395 9.88745C16.5395 8.22078 15.9561 6.80412 14.7895 5.63745C13.6228 4.47078 12.2061 3.88745 10.5395 3.88745C8.97279 3.88745 7.61862 4.41662 6.47695 5.47495C5.33529 6.53328 4.69779 7.83745 4.56445 9.38745H2.56445C2.69779 7.27078 3.52695 5.49162 5.05195 4.04995C6.57695 2.60828 8.40612 1.88745 10.5395 1.88745C12.7728 1.88745 14.6645 2.66245 16.2145 4.21245C17.7645 5.76245 18.5395 7.65412 18.5395 9.88745C18.5395 10.8208 18.3895 11.7 18.0895 12.525C17.7895 13.35 17.3728 14.1041 16.8395 14.7875L21.5395 19.4875L20.1395 20.8875Z" fill="#0B0B0B"/>
</g>
</svg>
